<svg xmlns="http://www.w3.org/2000/svg" viewBox="0 0 64 64" role="img" aria-labelledby="title">
  <title id="title">Vampire 2 playing card</title>
  <rect x="1" y="1" width="62" height="62" rx="3" fill="#f8f1e7" stroke="#241622" stroke-width="2"/>
  <rect x="5" y="5" width="54" height="54" rx="2" fill="#3b1420" stroke="#171017" stroke-width="2"/>
  <text x="8" y="15" fill="#f8f1e7" font-family="Arial, sans-serif" font-size="11" font-weight="800">V</text>
  <text x="49" y="15" fill="#f2a7ad" font-family="Arial, sans-serif" font-size="7" font-weight="800">II</text>
  <path d="M12 45 L20 26 L28 32 L32 21 L36 32 L44 26 L52 45 L40 40 L32 50 L24 40 Z" fill="#171017"/>
  <circle cx="32" cy="31" r="8" fill="#f4dfd5"/>
  <path d="M24 29 Q26 19 32 24 Q38 19 40 29 L36 26 L32 29 L28 26 Z" fill="#171017"/>
  <rect x="27" y="31" width="3" height="2" fill="#b83246"/>
  <rect x="34" y="31" width="3" height="2" fill="#b83246"/>
  <path d="M28 36 L31 40 L32 36 L33 40 L36 36" fill="none" stroke="#241622" stroke-width="1.5"/>
  <text x="32" y="56" fill="#f8f1e7" font-family="Arial, sans-serif" font-size="5" font-weight="800" letter-spacing="1" text-anchor="middle">VAMPIRE</text>
</svg>
